<?xml version='1.0' encoding='UTF-8'?>
<svg width="37mm" height="37mm" version="1.1" viewBox="0 0 37 37" xmlns="http://www.w3.org/2000/svg"><path d="M2,2H3V3H2zM3,2H4V3H3zM4,2H5V3H4zM5,2H6V3H5zM6,2H7V3H6zM7,2H8V3H7zM8,2H9V3H8zM11,2H12V3H11zM13,2H14V3H13zM14,2H15V3H14zM18,2H19V3H18zM20,2H21V3H20zM21,2H22V3H21zM22,2H23V3H22zM24,2H25V3H24zM25,2H26V3H25zM28,2H29V3H28zM29,2H30V3H29zM30,2H31V3H30zM31,2H32V3H31zM32,2H33V3H32zM33,2H34V3H33zM34,2H35V3H34zM2,3H3V4H2zM8,3H9V4H8zM12,3H13V4H12zM14,3H15V4H14zM17,3H18V4H17zM20,3H21V4H20zM22,3H23V4H22zM23,3H24V4H23zM24,3H25V4H24zM28,3H29V4H28zM34,3H35V4H34zM2,4H3V5H2zM4,4H5V5H4zM5,4H6V5H5zM6,4H7V5H6zM8,4H9V5H8zM10,4H11V5H10zM14,4H15V5H14zM16,4H17V5H16zM23,4H24V5H23zM25,4H26V5H25zM26,4H27V5H26zM28,4H29V5H28zM30,4H31V5H30zM31,4H32V5H31zM32,4H33V5H32zM34,4H35V5H34zM2,5H3V6H2zM4,5H5V6H4zM5,5H6V6H5zM6,5H7V6H6zM8,5H9V6H8zM10,5H11V6H10zM11,5H12V6H11zM12,5H13V6H12zM13,5H14V6H13zM14,5H15V6H14zM17,5H18V6H17zM20,5H21V6H20zM21,5H22V6H21zM24,5H25V6H24zM26,5H27V6H26zM28,5H29V6H28zM30,5H31V6H30zM31,5H32V6H31zM32,5H33V6H32zM34,5H35V6H34zM2,6H3V7H2zM4,6H5V7H4zM5,6H6V7H5zM6,6H7V7H6zM8,6H9V7H8zM10,6H11V7H10zM12,6H13V7H12zM13,6H14V7H13zM14,6H15V7H14zM16,6H17V7H16zM17,6H18V7H17zM18,6H19V7H18zM22,6H23V7H22zM23,6H24V7H23zM25,6H26V7H25zM28,6H29V7H28zM30,6H31V7H30zM31,6H32V7H31zM32,6H33V7H32zM34,6H35V7H34zM2,7H3V8H2zM8,7H9V8H8zM10,7H11V8H10zM13,7H14V8H13zM16,7H17V8H16zM19,7H20V8H19zM21,7H22V8H21zM28,7H29V8H28zM34,7H35V8H34zM2,8H3V9H2zM3,8H4V9H3zM4,8H5V9H4zM5,8H6V9H5zM6,8H7V9H6zM7,8H8V9H7zM8,8H9V9H8zM10,8H11V9H10zM12,8H13V9H12zM14,8H15V9H14zM16,8H17V9H16zM18,8H19V9H18zM20,8H21V9H20zM22,8H23V9H22zM24,8H25V9H24zM26,8H27V9H26zM28,8H29V9H28zM29,8H30V9H29zM30,8H31V9H30zM31,8H32V9H31zM32,8H33V9H32zM33,8H34V9H33zM34,8H35V9H34zM10,9H11V10H10zM12,9H13V10H12zM13,9H14V10H13zM14,9H15V10H14zM16,9H17V10H16zM18,9H19V10H18zM20,9H21V10H20zM21,9H22V10H21zM22,9H23V10H22zM23,9H24V10H23zM24,9H25V10H24zM26,9H27V10H26zM2,10H3V11H2zM4,10H5V11H4zM5,10H6V11H5zM6,10H7V11H6zM7,10H8V11H7zM8,10H9V11H8zM11,10H12V11H11zM14,10H15V11H14zM15,10H16V11H15zM16,10H17V11H16zM18,10H19V11H18zM19,10H20V11H19zM21,10H22V11H21zM24,10H25V11H24zM25,10H26V11H25zM28,10H29V11H28zM29,10H30V11H29zM30,10H31V11H30zM31,10H32V11H31zM32,10H33V11H32zM3,11H4V12H3zM4,11H5V12H4zM6,11H7V12H6zM7,11H8V12H7zM9,11H10V12H9zM10,11H11V12H10zM12,11H13V12H12zM13,11H14V12H13zM14,11H15V12H14zM15,11H16V12H15zM16,11H17V12H16zM18,11H19V12H18zM19,11H20V12H19zM21,11H22V12H21zM22,11H23V12H22zM23,11H24V12H23zM25,11H26V12H25zM28,11H29V12H28zM29,11H30V12H29zM31,11H32V12H31zM32,11H33V12H32zM33,11H34V12H33zM34,11H35V12H34zM5,12H6V13H5zM6,12H7V13H6zM7,12H8V13H7zM8,12H9V13H8zM12,12H13V13H12zM15,12H16V13H15zM16,12H17V13H16zM17,12H18V13H17zM18,12H19V13H18zM19,12H20V13H19zM23,12H24V13H23zM27,12H28V13H27zM30,12H31V13H30zM32,12H33V13H32zM33,12H34V13H33zM3,13H4V14H3zM4,13H5V14H4zM12,13H13V14H12zM13,13H14V14H13zM15,13H16V14H15zM18,13H19V14H18zM19,13H20V14H19zM20,13H21V14H20zM22,13H23V14H22zM23,13H24V14H23zM24,13H25V14H24zM26,13H27V14H26zM27,13H28V14H27zM30,13H31V14H30zM31,13H32V14H31zM32,13H33V14H32zM34,13H35V14H34zM2,14H3V15H2zM5,14H6V15H5zM7,14H8V15H7zM8,14H9V15H8zM11,14H12V15H11zM13,14H14V15H13zM16,14H17V15H16zM18,14H19V15H18zM21,14H22V15H21zM22,14H23V15H22zM24,14H25V15H24zM25,14H26V15H25zM26,14H27V15H26zM27,14H28V15H27zM29,14H30V15H29zM30,14H31V15H30zM31,14H32V15H31zM2,15H3V16H2zM3,15H4V16H3zM4,15H5V16H4zM6,15H7V16H6zM7,15H8V16H7zM9,15H10V16H9zM10,15H11V16H10zM12,15H13V16H12zM15,15H16V16H15zM17,15H18V16H17zM19,15H20V16H19zM20,15H21V16H20zM23,15H24V16H23zM24,15H25V16H24zM25,15H26V16H25zM28,15H29V16H28zM31,15H32V16H31zM32,15H33V16H32zM33,15H34V16H33zM34,15H35V16H34zM3,16H4V17H3zM4,16H5V17H4zM6,16H7V17H6zM8,16H9V17H8zM9,16H10V17H9zM10,16H11V17H10zM11,16H12V17H11zM12,16H13V17H12zM13,16H14V17H13zM15,16H16V17H15zM17,16H18V17H17zM18,16H19V17H18zM20,16H21V17H20zM22,16H23V17H22zM23,16H24V17H23zM24,16H25V17H24zM26,16H27V17H26zM27,16H28V17H27zM28,16H29V17H28zM30,16H31V17H30zM33,16H34V17H33zM3,17H4V18H3zM4,17H5V18H4zM7,17H8V18H7zM12,17H13V18H12zM14,17H15V18H14zM15,17H16V18H15zM17,17H18V18H17zM23,17H24V18H23zM24,17H25V18H24zM26,17H27V18H26zM27,17H28V18H27zM28,17H29V18H28zM29,17H30V18H29zM31,17H32V18H31zM32,17H33V18H32zM5,18H6V19H5zM7,18H8V19H7zM8,18H9V19H8zM9,18H10V19H9zM10,18H11V19H10zM12,18H13V19H12zM14,18H15V19H14zM15,18H16V19H15zM17,18H18V19H17zM19,18H20V19H19zM20,18H21V19H20zM26,18H27V19H26zM27,18H28V19H27zM29,18H30V19H29zM30,18H31V19H30zM34,18H35V19H34zM2,19H3V20H2zM3,19H4V20H3zM7,19H8V20H7zM9,19H10V20H9zM10,19H11V20H10zM11,19H12V20H11zM13,19H14V20H13zM14,19H15V20H14zM16,19H17V20H16zM20,19H21V20H20zM21,19H22V20H21zM22,19H23V20H22zM23,19H24V20H23zM25,19H26V20H25zM27,19H28V20H27zM28,19H29V20H28zM29,19H30V20H29zM31,19H32V20H31zM32,19H33V20H32zM33,19H34V20H33zM34,19H35V20H34zM3,20H4V21H3zM4,20H5V21H4zM8,20H9V21H8zM9,20H10V21H9zM10,20H11V21H10zM11,20H12V21H11zM12,20H13V21H12zM13,20H14V21H13zM15,20H16V21H15zM16,20H17V21H16zM17,20H18V21H17zM20,20H21V21H20zM26,20H27V21H26zM27,20H28V21H27zM29,20H30V21H29zM30,20H31V21H30zM32,20H33V21H32zM33,20H34V21H33zM3,21H4V22H3zM5,21H6V22H5zM7,21H8V22H7zM10,21H11V22H10zM11,21H12V22H11zM12,21H13V22H12zM13,21H14V22H13zM16,21H17V22H16zM17,21H18V22H17zM22,21H23V22H22zM23,21H24V22H23zM25,21H26V22H25zM29,21H30V22H29zM30,21H31V22H30zM31,21H32V22H31zM32,21H33V22H32zM33,21H34V22H33zM4,22H5V23H4zM8,22H9V23H8zM9,22H10V23H9zM13,22H14V23H13zM17,22H18V23H17zM20,22H21V23H20zM24,22H25V23H24zM25,22H26V23H25zM27,22H28V23H27zM30,22H31V23H30zM31,22H32V23H31zM33,22H34V23H33zM2,23H3V24H2zM4,23H5V24H4zM16,23H17V24H16zM17,23H18V24H17zM18,23H19V24H18zM19,23H20V24H19zM22,23H23V24H22zM25,23H26V24H25zM28,23H29V24H28zM32,23H33V24H32zM34,23H35V24H34zM2,24H3V25H2zM6,24H7V25H6zM8,24H9V25H8zM9,24H10V25H9zM10,24H11V25H10zM11,24H12V25H11zM12,24H13V25H12zM15,24H16V25H15zM16,24H17V25H16zM19,24H20V25H19zM21,24H22V25H21zM24,24H25V25H24zM30,24H31V25H30zM31,24H32V25H31zM32,24H33V25H32zM33,24H34V25H33zM2,25H3V26H2zM4,25H5V26H4zM6,25H7V26H6zM7,25H8V26H7zM9,25H10V26H9zM14,25H15V26H14zM18,25H19V26H18zM20,25H21V26H20zM21,25H22V26H21zM22,25H23V26H22zM23,25H24V26H23zM30,25H31V26H30zM31,25H32V26H31zM32,25H33V26H32zM33,25H34V26H33zM2,26H3V27H2zM5,26H6V27H5zM7,26H8V27H7zM8,26H9V27H8zM9,26H10V27H9zM11,26H12V27H11zM12,26H13V27H12zM16,26H17V27H16zM18,26H19V27H18zM19,26H20V27H19zM21,26H22V27H21zM22,26H23V27H22zM24,26H25V27H24zM25,26H26V27H25zM26,26H27V27H26zM27,26H28V27H27zM28,26H29V27H28zM29,26H30V27H29zM30,26H31V27H30zM31,26H32V27H31zM10,27H11V28H10zM11,27H12V28H11zM14,27H15V28H14zM15,27H16V28H15zM16,27H17V28H16zM18,27H19V28H18zM19,27H20V28H19zM20,27H21V28H20zM21,27H22V28H21zM22,27H23V28H22zM23,27H24V28H23zM26,27H27V28H26zM30,27H31V28H30zM32,27H33V28H32zM34,27H35V28H34zM2,28H3V29H2zM3,28H4V29H3zM4,28H5V29H4zM5,28H6V29H5zM6,28H7V29H6zM7,28H8V29H7zM8,28H9V29H8zM16,28H17V29H16zM17,28H18V29H17zM19,28H20V29H19zM22,28H23V29H22zM23,28H24V29H23zM24,28H25V29H24zM25,28H26V29H25zM26,28H27V29H26zM28,28H29V29H28zM30,28H31V29H30zM32,28H33V29H32zM33,28H34V29H33zM2,29H3V30H2zM8,29H9V30H8zM10,29H11V30H10zM14,29H15V30H14zM15,29H16V30H15zM17,29H18V30H17zM19,29H20V30H19zM20,29H21V30H20zM22,29H23V30H22zM23,29H24V30H23zM24,29H25V30H24zM25,29H26V30H25zM26,29H27V30H26zM30,29H31V30H30zM31,29H32V30H31zM32,29H33V30H32zM33,29H34V30H33zM34,29H35V30H34zM2,30H3V31H2zM4,30H5V31H4zM5,30H6V31H5zM6,30H7V31H6zM8,30H9V31H8zM10,30H11V31H10zM16,30H17V31H16zM17,30H18V31H17zM18,30H19V31H18zM24,30H25V31H24zM26,30H27V31H26zM27,30H28V31H27zM28,30H29V31H28zM29,30H30V31H29zM30,30H31V31H30zM31,30H32V31H31zM2,31H3V32H2zM4,31H5V32H4zM5,31H6V32H5zM6,31H7V32H6zM8,31H9V32H8zM10,31H11V32H10zM11,31H12V32H11zM13,31H14V32H13zM15,31H16V32H15zM17,31H18V32H17zM20,31H21V32H20zM24,31H25V32H24zM25,31H26V32H25zM26,31H27V32H26zM27,31H28V32H27zM30,31H31V32H30zM32,31H33V32H32zM33,31H34V32H33zM34,31H35V32H34zM2,32H3V33H2zM4,32H5V33H4zM5,32H6V33H5zM6,32H7V33H6zM8,32H9V33H8zM10,32H11V33H10zM11,32H12V33H11zM12,32H13V33H12zM16,32H17V33H16zM17,32H18V33H17zM18,32H19V33H18zM20,32H21V33H20zM22,32H23V33H22zM24,32H25V33H24zM26,32H27V33H26zM28,32H29V33H28zM29,32H30V33H29zM2,33H3V34H2zM8,33H9V34H8zM11,33H12V34H11zM12,33H13V34H12zM15,33H16V34H15zM17,33H18V34H17zM21,33H22V34H21zM23,33H24V34H23zM25,33H26V34H25zM27,33H28V34H27zM30,33H31V34H30zM32,33H33V34H32zM2,34H3V35H2zM3,34H4V35H3zM4,34H5V35H4zM5,34H6V35H5zM6,34H7V35H6zM7,34H8V35H7zM8,34H9V35H8zM10,34H11V35H10zM11,34H12V35H11zM13,34H14V35H13zM14,34H15V35H14zM15,34H16V35H15zM17,34H18V35H17zM18,34H19V35H18zM19,34H20V35H19zM24,34H25V35H24zM26,34H27V35H26zM27,34H28V35H27zM29,34H30V35H29zM31,34H32V35H31zM33,34H34V35H33z" id="qr-path" fill="#000000" fill-opacity="1" fill-rule="nonzero" stroke="none" /></svg>