<?xml version='1.0' encoding='UTF-8'?>
<!-- QR de pago interoperable (Redeban/Davivienda) - LA VIDA SABE A PANISSE SAS. Generado desde el payload EMV del QR físico. -->
<svg version="1.1" viewBox="0 0 77 77" xmlns="http://www.w3.org/2000/svg"><path d="M2,2H3V3H2zM3,2H4V3H3zM4,2H5V3H4zM5,2H6V3H5zM6,2H7V3H6zM7,2H8V3H7zM8,2H9V3H8zM11,2H12V3H11zM12,2H13V3H12zM13,2H14V3H13zM15,2H16V3H15zM17,2H18V3H17zM18,2H19V3H18zM19,2H20V3H19zM20,2H21V3H20zM24,2H25V3H24zM25,2H26V3H25zM28,2H29V3H28zM32,2H33V3H32zM34,2H35V3H34zM37,2H38V3H37zM39,2H40V3H39zM40,2H41V3H40zM41,2H42V3H41zM43,2H44V3H43zM44,2H45V3H44zM50,2H51V3H50zM51,2H52V3H51zM52,2H53V3H52zM53,2H54V3H53zM55,2H56V3H55zM56,2H57V3H56zM58,2H59V3H58zM62,2H63V3H62zM63,2H64V3H63zM64,2H65V3H64zM66,2H67V3H66zM68,2H69V3H68zM69,2H70V3H69zM70,2H71V3H70zM71,2H72V3H71zM72,2H73V3H72zM73,2H74V3H73zM74,2H75V3H74zM2,3H3V4H2zM8,3H9V4H8zM10,3H11V4H10zM12,3H13V4H12zM13,3H14V4H13zM14,3H15V4H14zM17,3H18V4H17zM18,3H19V4H18zM20,3H21V4H20zM23,3H24V4H23zM24,3H25V4H24zM28,3H29V4H28zM29,3H30V4H29zM31,3H32V4H31zM33,3H34V4H33zM34,3H35V4H34zM35,3H36V4H35zM36,3H37V4H36zM38,3H39V4H38zM42,3H43V4H42zM44,3H45V4H44zM45,3H46V4H45zM46,3H47V4H46zM48,3H49V4H48zM49,3H50V4H49zM52,3H53V4H52zM54,3H55V4H54zM55,3H56V4H55zM56,3H57V4H56zM58,3H59V4H58zM59,3H60V4H59zM64,3H65V4H64zM68,3H69V4H68zM74,3H75V4H74zM2,4H3V5H2zM4,4H5V5H4zM5,4H6V5H5zM6,4H7V5H6zM8,4H9V5H8zM11,4H12V5H11zM12,4H13V5H12zM14,4H15V5H14zM15,4H16V5H15zM17,4H18V5H17zM19,4H20V5H19zM21,4H22V5H21zM22,4H23V5H22zM24,4H25V5H24zM28,4H29V5H28zM34,4H35V5H34zM37,4H38V5H37zM38,4H39V5H38zM40,4H41V5H40zM42,4H43V5H42zM46,4H47V5H46zM47,4H48V5H47zM49,4H50V5H49zM50,4H51V5H50zM54,4H55V5H54zM55,4H56V5H55zM57,4H58V5H57zM59,4H60V5H59zM60,4H61V5H60zM62,4H63V5H62zM63,4H64V5H63zM68,4H69V5H68zM70,4H71V5H70zM71,4H72V5H71zM72,4H73V5H72zM74,4H75V5H74zM2,5H3V6H2zM4,5H5V6H4zM5,5H6V6H5zM6,5H7V6H6zM8,5H9V6H8zM12,5H13V6H12zM14,5H15V6H14zM15,5H16V6H15zM17,5H18V6H17zM20,5H21V6H20zM23,5H24V6H23zM25,5H26V6H25zM28,5H29V6H28zM30,5H31V6H30zM35,5H36V6H35zM38,5H39V6H38zM39,5H40V6H39zM43,5H44V6H43zM44,5H45V6H44zM46,5H47V6H46zM48,5H49V6H48zM49,5H50V6H49zM51,5H52V6H51zM53,5H54V6H53zM54,5H55V6H54zM55,5H56V6H55zM58,5H59V6H58zM61,5H62V6H61zM64,5H65V6H64zM65,5H66V6H65zM68,5H69V6H68zM70,5H71V6H70zM71,5H72V6H71zM72,5H73V6H72zM74,5H75V6H74zM2,6H3V7H2zM4,6H5V7H4zM5,6H6V7H5zM6,6H7V7H6zM8,6H9V7H8zM10,6H11V7H10zM11,6H12V7H11zM12,6H13V7H12zM16,6H17V7H16zM18,6H19V7H18zM19,6H20V7H19zM20,6H21V7H20zM22,6H23V7H22zM26,6H27V7H26zM27,6H28V7H27zM28,6H29V7H28zM29,6H30V7H29zM30,6H31V7H30zM31,6H32V7H31zM34,6H35V7H34zM35,6H36V7H35zM36,6H37V7H36zM40,6H41V7H40zM41,6H42V7H41zM44,6H45V7H44zM45,6H46V7H45zM46,6H47V7H46zM47,6H48V7H47zM48,6H49V7H48zM49,6H50V7H49zM50,6H51V7H50zM52,6H53V7H52zM54,6H55V7H54zM55,6H56V7H55zM56,6H57V7H56zM60,6H61V7H60zM62,6H63V7H62zM65,6H66V7H65zM66,6H67V7H66zM68,6H69V7H68zM70,6H71V7H70zM71,6H72V7H71zM72,6H73V7H72zM74,6H75V7H74zM2,7H3V8H2zM8,7H9V8H8zM11,7H12V8H11zM14,7H15V8H14zM16,7H17V8H16zM18,7H19V8H18zM20,7H21V8H20zM23,7H24V8H23zM25,7H26V8H25zM26,7H27V8H26zM30,7H31V8H30zM31,7H32V8H31zM32,7H33V8H32zM33,7H34V8H33zM35,7H36V8H35zM36,7H37V8H36zM38,7H39V8H38zM39,7H40V8H39zM40,7H41V8H40zM41,7H42V8H41zM42,7H43V8H42zM43,7H44V8H43zM46,7H47V8H46zM50,7H51V8H50zM51,7H52V8H51zM55,7H56V8H55zM56,7H57V8H56zM57,7H58V8H57zM58,7H59V8H58zM59,7H60V8H59zM61,7H62V8H61zM62,7H63V8H62zM63,7H64V8H63zM64,7H65V8H64zM68,7H69V8H68zM74,7H75V8H74zM2,8H3V9H2zM3,8H4V9H3zM4,8H5V9H4zM5,8H6V9H5zM6,8H7V9H6zM7,8H8V9H7zM8,8H9V9H8zM10,8H11V9H10zM12,8H13V9H12zM14,8H15V9H14zM16,8H17V9H16zM18,8H19V9H18zM20,8H21V9H20zM22,8H23V9H22zM24,8H25V9H24zM26,8H27V9H26zM28,8H29V9H28zM30,8H31V9H30zM32,8H33V9H32zM34,8H35V9H34zM36,8H37V9H36zM38,8H39V9H38zM40,8H41V9H40zM42,8H43V9H42zM44,8H45V9H44zM46,8H47V9H46zM48,8H49V9H48zM50,8H51V9H50zM52,8H53V9H52zM54,8H55V9H54zM56,8H57V9H56zM58,8H59V9H58zM60,8H61V9H60zM62,8H63V9H62zM64,8H65V9H64zM66,8H67V9H66zM68,8H69V9H68zM69,8H70V9H69zM70,8H71V9H70zM71,8H72V9H71zM72,8H73V9H72zM73,8H74V9H73zM74,8H75V9H74zM11,9H12V10H11zM12,9H13V10H12zM13,9H14V10H13zM14,9H15V10H14zM15,9H16V10H15zM17,9H18V10H17zM19,9H20V10H19zM21,9H22V10H21zM22,9H23V10H22zM26,9H27V10H26zM30,9H31V10H30zM33,9H34V10H33zM40,9H41V10H40zM43,9H44V10H43zM45,9H46V10H45zM46,9H47V10H46zM50,9H51V10H50zM55,9H56V10H55zM57,9H58V10H57zM60,9H61V10H60zM62,9H63V10H62zM64,9H65V10H64zM65,9H66V10H65zM2,10H3V11H2zM4,10H5V11H4zM6,10H7V11H6zM8,10H9V11H8zM11,10H12V11H11zM12,10H13V11H12zM14,10H15V11H14zM15,10H16V11H15zM16,10H17V11H16zM18,10H19V11H18zM19,10H20V11H19zM25,10H26V11H25zM26,10H27V11H26zM27,10H28V11H27zM28,10H29V11H28zM29,10H30V11H29zM30,10H31V11H30zM32,10H33V11H32zM33,10H34V11H33zM36,10H37V11H36zM40,10H41V11H40zM44,10H45V11H44zM45,10H46V11H45zM46,10H47V11H46zM47,10H48V11H47zM48,10H49V11H48zM49,10H50V11H49zM50,10H51V11H50zM53,10H54V11H53zM54,10H55V11H54zM58,10H59V11H58zM62,10H63V11H62zM64,10H65V11H64zM66,10H67V11H66zM70,10H71V11H70zM73,10H74V11H73zM7,11H8V12H7zM9,11H10V12H9zM10,11H11V12H10zM11,11H12V12H11zM12,11H13V12H12zM18,11H19V12H18zM19,11H20V12H19zM20,11H21V12H20zM22,11H23V12H22zM24,11H25V12H24zM25,11H26V12H25zM26,11H27V12H26zM27,11H28V12H27zM28,11H29V12H28zM29,11H30V12H29zM30,11H31V12H30zM31,11H32V12H31zM32,11H33V12H32zM34,11H35V12H34zM35,11H36V12H35zM36,11H37V12H36zM37,11H38V12H37zM39,11H40V12H39zM40,11H41V12H40zM41,11H42V12H41zM43,11H44V12H43zM45,11H46V12H45zM49,11H50V12H49zM52,11H53V12H52zM55,11H56V12H55zM69,11H70V12H69zM71,11H72V12H71zM72,11H73V12H72zM73,11H74V12H73zM2,12H3V13H2zM4,12H5V13H4zM5,12H6V13H5zM6,12H7V13H6zM7,12H8V13H7zM8,12H9V13H8zM9,12H10V13H9zM11,12H12V13H11zM12,12H13V13H12zM13,12H14V13H13zM14,12H15V13H14zM16,12H17V13H16zM17,12H18V13H17zM18,12H19V13H18zM19,12H20V13H19zM21,12H22V13H21zM22,12H23V13H22zM23,12H24V13H23zM25,12H26V13H25zM28,12H29V13H28zM31,12H32V13H31zM35,12H36V13H35zM37,12H38V13H37zM38,12H39V13H38zM39,12H40V13H39zM44,12H45V13H44zM46,12H47V13H46zM48,12H49V13H48zM50,12H51V13H50zM51,12H52V13H51zM53,12H54V13H53zM54,12H55V13H54zM56,12H57V13H56zM60,12H61V13H60zM61,12H62V13H61zM62,12H63V13H62zM66,12H67V13H66zM67,12H68V13H67zM70,12H71V13H70zM71,12H72V13H71zM72,12H73V13H72zM73,12H74V13H73zM74,12H75V13H74zM5,13H6V14H5zM7,13H8V14H7zM12,13H13V14H12zM15,13H16V14H15zM16,13H17V14H16zM17,13H18V14H17zM18,13H19V14H18zM21,13H22V14H21zM22,13H23V14H22zM23,13H24V14H23zM25,13H26V14H25zM28,13H29V14H28zM29,13H30V14H29zM30,13H31V14H30zM32,13H33V14H32zM33,13H34V14H33zM35,13H36V14H35zM39,13H40V14H39zM41,13H42V14H41zM43,13H44V14H43zM45,13H46V14H45zM47,13H48V14H47zM49,13H50V14H49zM50,13H51V14H50zM53,13H54V14H53zM54,13H55V14H54zM55,13H56V14H55zM56,13H57V14H56zM57,13H58V14H57zM59,13H60V14H59zM61,13H62V14H61zM63,13H64V14H63zM64,13H65V14H64zM65,13H66V14H65zM67,13H68V14H67zM69,13H70V14H69zM71,13H72V14H71zM73,13H74V14H73zM4,14H5V15H4zM5,14H6V15H5zM6,14H7V15H6zM8,14H9V15H8zM10,14H11V15H10zM12,14H13V15H12zM14,14H15V15H14zM19,14H20V15H19zM22,14H23V15H22zM25,14H26V15H25zM26,14H27V15H26zM27,14H28V15H27zM32,14H33V15H32zM34,14H35V15H34zM36,14H37V15H36zM39,14H40V15H39zM40,14H41V15H40zM42,14H43V15H42zM44,14H45V15H44zM46,14H47V15H46zM48,14H49V15H48zM49,14H50V15H49zM51,14H52V15H51zM53,14H54V15H53zM55,14H56V15H55zM57,14H58V15H57zM58,14H59V15H58zM59,14H60V15H59zM60,14H61V15H60zM61,14H62V15H61zM65,14H66V15H65zM66,14H67V15H66zM72,14H73V15H72zM2,15H3V16H2zM4,15H5V16H4zM6,15H7V16H6zM9,15H10V16H9zM14,15H15V16H14zM18,15H19V16H18zM20,15H21V16H20zM21,15H22V16H21zM27,15H28V16H27zM30,15H31V16H30zM31,15H32V16H31zM33,15H34V16H33zM34,15H35V16H34zM37,15H38V16H37zM38,15H39V16H38zM41,15H42V16H41zM43,15H44V16H43zM46,15H47V16H46zM47,15H48V16H47zM49,15H50V16H49zM51,15H52V16H51zM53,15H54V16H53zM55,15H56V16H55zM59,15H60V16H59zM61,15H62V16H61zM63,15H64V16H63zM71,15H72V16H71zM72,15H73V16H72zM74,15H75V16H74zM2,16H3V17H2zM4,16H5V17H4zM5,16H6V17H5zM6,16H7V17H6zM7,16H8V17H7zM8,16H9V17H8zM11,16H12V17H11zM12,16H13V17H12zM14,16H15V17H14zM18,16H19V17H18zM19,16H20V17H19zM20,16H21V17H20zM22,16H23V17H22zM24,16H25V17H24zM26,16H27V17H26zM27,16H28V17H27zM28,16H29V17H28zM29,16H30V17H29zM30,16H31V17H30zM31,16H32V17H31zM34,16H35V17H34zM38,16H39V17H38zM41,16H42V17H41zM42,16H43V17H42zM44,16H45V17H44zM46,16H47V17H46zM48,16H49V17H48zM49,16H50V17H49zM52,16H53V17H52zM56,16H57V17H56zM58,16H59V17H58zM59,16H60V17H59zM64,16H65V17H64zM66,16H67V17H66zM70,16H71V17H70zM2,17H3V18H2zM7,17H8V18H7zM9,17H10V18H9zM11,17H12V18H11zM13,17H14V18H13zM14,17H15V18H14zM15,17H16V18H15zM16,17H17V18H16zM17,17H18V18H17zM19,17H20V18H19zM22,17H23V18H22zM26,17H27V18H26zM27,17H28V18H27zM28,17H29V18H28zM29,17H30V18H29zM32,17H33V18H32zM33,17H34V18H33zM36,17H37V18H36zM37,17H38V18H37zM38,17H39V18H38zM40,17H41V18H40zM41,17H42V18H41zM42,17H43V18H42zM44,17H45V18H44zM45,17H46V18H45zM46,17H47V18H46zM47,17H48V18H47zM48,17H49V18H48zM53,17H54V18H53zM59,17H60V18H59zM61,17H62V18H61zM62,17H63V18H62zM63,17H64V18H63zM66,17H67V18H66zM67,17H68V18H67zM71,17H72V18H71zM72,17H73V18H72zM73,17H74V18H73zM2,18H3V19H2zM5,18H6V19H5zM7,18H8V19H7zM8,18H9V19H8zM9,18H10V19H9zM10,18H11V19H10zM11,18H12V19H11zM12,18H13V19H12zM13,18H14V19H13zM14,18H15V19H14zM15,18H16V19H15zM16,18H17V19H16zM17,18H18V19H17zM19,18H20V19H19zM22,18H23V19H22zM25,18H26V19H25zM27,18H28V19H27zM29,18H30V19H29zM30,18H31V19H30zM34,18H35V19H34zM38,18H39V19H38zM41,18H42V19H41zM46,18H47V19H46zM56,18H57V19H56zM58,18H59V19H58zM59,18H60V19H59zM62,18H63V19H62zM66,18H67V19H66zM68,18H69V19H68zM70,18H71V19H70zM71,18H72V19H71zM72,18H73V19H72zM2,19H3V20H2zM5,19H6V20H5zM12,19H13V20H12zM14,19H15V20H14zM15,19H16V20H15zM17,19H18V20H17zM18,19H19V20H18zM19,19H20V20H19zM22,19H23V20H22zM24,19H25V20H24zM25,19H26V20H25zM26,19H27V20H26zM28,19H29V20H28zM30,19H31V20H30zM32,19H33V20H32zM36,19H37V20H36zM37,19H38V20H37zM40,19H41V20H40zM41,19H42V20H41zM44,19H45V20H44zM46,19H47V20H46zM47,19H48V20H47zM51,19H52V20H51zM53,19H54V20H53zM57,19H58V20H57zM59,19H60V20H59zM60,19H61V20H60zM62,19H63V20H62zM63,19H64V20H63zM65,19H66V20H65zM69,19H70V20H69zM70,19H71V20H70zM71,19H72V20H71zM73,19H74V20H73zM4,20H5V21H4zM7,20H8V21H7zM8,20H9V21H8zM10,20H11V21H10zM12,20H13V21H12zM14,20H15V21H14zM15,20H16V21H15zM16,20H17V21H16zM17,20H18V21H17zM18,20H19V21H18zM19,20H20V21H19zM21,20H22V21H21zM26,20H27V21H26zM27,20H28V21H27zM28,20H29V21H28zM29,20H30V21H29zM32,20H33V21H32zM34,20H35V21H34zM36,20H37V21H36zM37,20H38V21H37zM38,20H39V21H38zM40,20H41V21H40zM41,20H42V21H41zM42,20H43V21H42zM44,20H45V21H44zM45,20H46V21H45zM47,20H48V21H47zM49,20H50V21H49zM51,20H52V21H51zM52,20H53V21H52zM54,20H55V21H54zM55,20H56V21H55zM59,20H60V21H59zM61,20H62V21H61zM63,20H64V21H63zM65,20H66V21H65zM66,20H67V21H66zM68,20H69V21H68zM72,20H73V21H72zM74,20H75V21H74zM2,21H3V22H2zM4,21H5V22H4zM5,21H6V22H5zM6,21H7V22H6zM9,21H10V22H9zM15,21H16V22H15zM18,21H19V22H18zM19,21H20V22H19zM21,21H22V22H21zM22,21H23V22H22zM26,21H27V22H26zM27,21H28V22H27zM28,21H29V22H28zM30,21H31V22H30zM31,21H32V22H31zM36,21H37V22H36zM40,21H41V22H40zM44,21H45V22H44zM51,21H52V22H51zM55,21H56V22H55zM59,21H60V22H59zM60,21H61V22H60zM62,21H63V22H62zM69,21H70V22H69zM70,21H71V22H70zM71,21H72V22H71zM3,22H4V23H3zM5,22H6V23H5zM6,22H7V23H6zM7,22H8V23H7zM8,22H9V23H8zM14,22H15V23H14zM15,22H16V23H15zM16,22H17V23H16zM20,22H21V23H20zM21,22H22V23H21zM22,22H23V23H22zM25,22H26V23H25zM26,22H27V23H26zM27,22H28V23H27zM32,22H33V23H32zM34,22H35V23H34zM35,22H36V23H35zM38,22H39V23H38zM40,22H41V23H40zM42,22H43V23H42zM43,22H44V23H43zM44,22H45V23H44zM46,22H47V23H46zM48,22H49V23H48zM49,22H50V23H49zM50,22H51V23H50zM51,22H52V23H51zM52,22H53V23H52zM55,22H56V23H55zM56,22H57V23H56zM57,22H58V23H57zM60,22H61V23H60zM62,22H63V23H62zM63,22H64V23H63zM64,22H65V23H64zM72,22H73V23H72zM74,22H75V23H74zM2,23H3V24H2zM3,23H4V24H3zM4,23H5V24H4zM5,23H6V24H5zM7,23H8V24H7zM9,23H10V24H9zM10,23H11V24H10zM11,23H12V24H11zM12,23H13V24H12zM15,23H16V24H15zM16,23H17V24H16zM17,23H18V24H17zM19,23H20V24H19zM21,23H22V24H21zM22,23H23V24H22zM23,23H24V24H23zM24,23H25V24H24zM26,23H27V24H26zM29,23H30V24H29zM30,23H31V24H30zM39,23H40V24H39zM40,23H41V24H40zM44,23H45V24H44zM50,23H51V24H50zM51,23H52V24H51zM52,23H53V24H52zM55,23H56V24H55zM56,23H57V24H56zM57,23H58V24H57zM58,23H59V24H58zM60,23H61V24H60zM65,23H66V24H65zM67,23H68V24H67zM72,23H73V24H72zM73,23H74V24H73zM2,24H3V25H2zM3,24H4V25H3zM5,24H6V25H5zM8,24H9V25H8zM11,24H12V25H11zM14,24H15V25H14zM15,24H16V25H15zM18,24H19V25H18zM19,24H20V25H19zM20,24H21V25H20zM22,24H23V25H22zM24,24H25V25H24zM30,24H31V25H30zM31,24H32V25H31zM34,24H35V25H34zM36,24H37V25H36zM38,24H39V25H38zM39,24H40V25H39zM42,24H43V25H42zM44,24H45V25H44zM46,24H47V25H46zM48,24H49V25H48zM49,24H50V25H49zM50,24H51V25H50zM51,24H52V25H51zM52,24H53V25H52zM54,24H55V25H54zM56,24H57V25H56zM57,24H58V25H57zM58,24H59V25H58zM60,24H61V25H60zM62,24H63V25H62zM66,24H67V25H66zM68,24H69V25H68zM69,24H70V25H69zM70,24H71V25H70zM71,24H72V25H71zM74,24H75V25H74zM4,25H5V26H4zM5,25H6V26H5zM6,25H7V26H6zM7,25H8V26H7zM10,25H11V26H10zM11,25H12V26H11zM12,25H13V26H12zM19,25H20V26H19zM21,25H22V26H21zM22,25H23V26H22zM24,25H25V26H24zM31,25H32V26H31zM34,25H35V26H34zM35,25H36V26H35zM36,25H37V26H36zM37,25H38V26H37zM39,25H40V26H39zM40,25H41V26H40zM41,25H42V26H41zM42,25H43V26H42zM47,25H48V26H47zM48,25H49V26H48zM51,25H52V26H51zM53,25H54V26H53zM56,25H57V26H56zM57,25H58V26H57zM60,25H61V26H60zM63,25H64V26H63zM64,25H65V26H64zM65,25H66V26H65zM67,25H68V26H67zM69,25H70V26H69zM70,25H71V26H70zM71,25H72V26H71zM73,25H74V26H73zM74,25H75V26H74zM2,26H3V27H2zM4,26H5V27H4zM5,26H6V27H5zM6,26H7V27H6zM7,26H8V27H7zM8,26H9V27H8zM9,26H10V27H9zM10,26H11V27H10zM11,26H12V27H11zM13,26H14V27H13zM18,26H19V27H18zM20,26H21V27H20zM23,26H24V27H23zM24,26H25V27H24zM25,26H26V27H25zM26,26H27V27H26zM27,26H28V27H27zM28,26H29V27H28zM29,26H30V27H29zM30,26H31V27H30zM32,26H33V27H32zM38,26H39V27H38zM40,26H41V27H40zM41,26H42V27H41zM42,26H43V27H42zM43,26H44V27H43zM44,26H45V27H44zM46,26H47V27H46zM47,26H48V27H47zM48,26H49V27H48zM49,26H50V27H49zM50,26H51V27H50zM52,26H53V27H52zM58,26H59V27H58zM59,26H60V27H59zM62,26H63V27H62zM66,26H67V27H66zM67,26H68V27H67zM68,26H69V27H68zM69,26H70V27H69zM70,26H71V27H70zM72,26H73V27H72zM73,26H74V27H73zM74,26H75V27H74zM2,27H3V28H2zM5,27H6V28H5zM6,27H7V28H6zM10,27H11V28H10zM12,27H13V28H12zM14,27H15V28H14zM16,27H17V28H16zM19,27H20V28H19zM24,27H25V28H24zM25,27H26V28H25zM26,27H27V28H26zM30,27H31V28H30zM31,27H32V28H31zM32,27H33V28H32zM33,27H34V28H33zM37,27H38V28H37zM39,27H40V28H39zM40,27H41V28H40zM41,27H42V28H41zM43,27H44V28H43zM45,27H46V28H45zM46,27H47V28H46zM50,27H51V28H50zM51,27H52V28H51zM52,27H53V28H52zM53,27H54V28H53zM57,27H58V28H57zM59,27H60V28H59zM61,27H62V28H61zM63,27H64V28H63zM64,27H65V28H64zM66,27H67V28H66zM70,27H71V28H70zM72,27H73V28H72zM73,27H74V28H73zM74,27H75V28H74zM3,28H4V29H3zM4,28H5V29H4zM6,28H7V29H6zM8,28H9V29H8zM10,28H11V29H10zM11,28H12V29H11zM13,28H14V29H13zM14,28H15V29H14zM15,28H16V29H15zM17,28H18V29H17zM19,28H20V29H19zM26,28H27V29H26zM28,28H29V29H28zM30,28H31V29H30zM32,28H33V29H32zM34,28H35V29H34zM35,28H36V29H35zM36,28H37V29H36zM38,28H39V29H38zM39,28H40V29H39zM40,28H41V29H40zM42,28H43V29H42zM43,28H44V29H43zM44,28H45V29H44zM46,28H47V29H46zM48,28H49V29H48zM50,28H51V29H50zM51,28H52V29H51zM53,28H54V29H53zM55,28H56V29H55zM56,28H57V29H56zM59,28H60V29H59zM64,28H65V29H64zM66,28H67V29H66zM68,28H69V29H68zM70,28H71V29H70zM71,28H72V29H71zM72,28H73V29H72zM74,28H75V29H74zM2,29H3V30H2zM4,29H5V30H4zM5,29H6V30H5zM6,29H7V30H6zM10,29H11V30H10zM14,29H15V30H14zM15,29H16V30H15zM18,29H19V30H18zM19,29H20V30H19zM21,29H22V30H21zM22,29H23V30H22zM24,29H25V30H24zM25,29H26V30H25zM26,29H27V30H26zM30,29H31V30H30zM31,29H32V30H31zM32,29H33V30H32zM34,29H35V30H34zM35,29H36V30H35zM36,29H37V30H36zM38,29H39V30H38zM39,29H40V30H39zM42,29H43V30H42zM45,29H46V30H45zM46,29H47V30H46zM50,29H51V30H50zM53,29H54V30H53zM54,29H55V30H54zM55,29H56V30H55zM60,29H61V30H60zM61,29H62V30H61zM66,29H67V30H66zM70,29H71V30H70zM71,29H72V30H71zM73,29H74V30H73zM2,30H3V31H2zM6,30H7V31H6zM7,30H8V31H7zM8,30H9V31H8zM9,30H10V31H9zM10,30H11V31H10zM11,30H12V31H11zM12,30H13V31H12zM14,30H15V31H14zM15,30H16V31H15zM17,30H18V31H17zM18,30H19V31H18zM20,30H21V31H20zM21,30H22V31H21zM22,30H23V31H22zM26,30H27V31H26zM27,30H28V31H27zM28,30H29V31H28zM29,30H30V31H29zM30,30H31V31H30zM31,30H32V31H31zM34,30H35V31H34zM35,30H36V31H35zM36,30H37V31H36zM38,30H39V31H38zM40,30H41V31H40zM42,30H43V31H42zM43,30H44V31H43zM44,30H45V31H44zM46,30H47V31H46zM47,30H48V31H47zM48,30H49V31H48zM49,30H50V31H49zM50,30H51V31H50zM52,30H53V31H52zM53,30H54V31H53zM55,30H56V31H55zM56,30H57V31H56zM58,30H59V31H58zM59,30H60V31H59zM60,30H61V31H60zM61,30H62V31H61zM62,30H63V31H62zM63,30H64V31H63zM64,30H65V31H64zM66,30H67V31H66zM67,30H68V31H67zM68,30H69V31H68zM69,30H70V31H69zM70,30H71V31H70zM71,30H72V31H71zM72,30H73V31H72zM2,31H3V32H2zM5,31H6V32H5zM10,31H11V32H10zM14,31H15V32H14zM17,31H18V32H17zM18,31H19V32H18zM20,31H21V32H20zM21,31H22V32H21zM22,31H23V32H22zM25,31H26V32H25zM26,31H27V32H26zM30,31H31V32H30zM32,31H33V32H32zM35,31H36V32H35zM36,31H37V32H36zM39,31H40V32H39zM40,31H41V32H40zM43,31H44V32H43zM44,31H45V32H44zM47,31H48V32H47zM49,31H50V32H49zM53,31H54V32H53zM55,31H56V32H55zM59,31H60V32H59zM62,31H63V32H62zM63,31H64V32H63zM66,31H67V32H66zM69,31H70V32H69zM70,31H71V32H70zM72,31H73V32H72zM73,31H74V32H73zM74,31H75V32H74zM3,32H4V33H3zM4,32H5V33H4zM5,32H6V33H5zM8,32H9V33H8zM11,32H12V33H11zM15,32H16V33H15zM21,32H22V33H21zM23,32H24V33H23zM24,32H25V33H24zM26,32H27V33H26zM29,32H30V33H29zM32,32H33V33H32zM35,32H36V33H35zM36,32H37V33H36zM37,32H38V33H37zM40,32H41V33H40zM41,32H42V33H41zM43,32H44V33H43zM44,32H45V33H44zM48,32H49V33H48zM50,32H51V33H50zM52,32H53V33H52zM54,32H55V33H54zM55,32H56V33H55zM57,32H58V33H57zM59,32H60V33H59zM63,32H64V33H63zM65,32H66V33H65zM69,32H70V33H69zM72,32H73V33H72zM73,32H74V33H73zM4,33H5V34H4zM14,33H15V34H14zM17,33H18V34H17zM18,33H19V34H18zM20,33H21V34H20zM21,33H22V34H21zM23,33H24V34H23zM25,33H26V34H25zM29,33H30V34H29zM30,33H31V34H30zM33,33H34V34H33zM34,33H35V34H34zM35,33H36V34H35zM36,33H37V34H36zM37,33H38V34H37zM38,33H39V34H38zM39,33H40V34H39zM41,33H42V34H41zM46,33H47V34H46zM47,33H48V34H47zM48,33H49V34H48zM53,33H54V34H53zM59,33H60V34H59zM61,33H62V34H61zM62,33H63V34H62zM63,33H64V34H63zM64,33H65V34H64zM65,33H66V34H65zM67,33H68V34H67zM68,33H69V34H68zM72,33H73V34H72zM2,34H3V35H2zM3,34H4V35H3zM5,34H6V35H5zM7,34H8V35H7zM8,34H9V35H8zM12,34H13V35H12zM13,34H14V35H13zM14,34H15V35H14zM15,34H16V35H15zM16,34H17V35H16zM17,34H18V35H17zM22,34H23V35H22zM23,34H24V35H23zM24,34H25V35H24zM25,34H26V35H25zM26,34H27V35H26zM30,34H31V35H30zM32,34H33V35H32zM33,34H34V35H33zM34,34H35V35H34zM36,34H37V35H36zM37,34H38V35H37zM42,34H43V35H42zM43,34H44V35H43zM48,34H49V35H48zM49,34H50V35H49zM50,34H51V35H50zM51,34H52V35H51zM52,34H53V35H52zM56,34H57V35H56zM58,34H59V35H58zM59,34H60V35H59zM61,34H62V35H61zM63,34H64V35H63zM64,34H65V35H64zM65,34H66V35H65zM67,34H68V35H67zM68,34H69V35H68zM70,34H71V35H70zM72,34H73V35H72zM2,35H3V36H2zM3,35H4V36H3zM10,35H11V36H10zM12,35H13V36H12zM14,35H15V36H14zM15,35H16V36H15zM18,35H19V36H18zM20,35H21V36H20zM23,35H24V36H23zM24,35H25V36H24zM25,35H26V36H25zM26,35H27V36H26zM28,35H29V36H28zM32,35H33V36H32zM33,35H34V36H33zM36,35H37V36H36zM39,35H40V36H39zM43,35H44V36H43zM46,35H47V36H46zM47,35H48V36H47zM48,35H49V36H48zM49,35H50V36H49zM50,35H51V36H50zM51,35H52V36H51zM54,35H55V36H54zM55,35H56V36H55zM57,35H58V36H57zM58,35H59V36H58zM59,35H60V36H59zM61,35H62V36H61zM63,35H64V36H63zM65,35H66V36H65zM67,35H68V36H67zM69,35H70V36H69zM70,35H71V36H70zM71,35H72V36H71zM72,35H73V36H72zM74,35H75V36H74zM2,36H3V37H2zM5,36H6V37H5zM7,36H8V37H7zM8,36H9V37H8zM9,36H10V37H9zM10,36H11V37H10zM11,36H12V37H11zM12,36H13V37H12zM16,36H17V37H16zM18,36H19V37H18zM19,36H20V37H19zM20,36H21V37H20zM22,36H23V37H22zM23,36H24V37H23zM25,36H26V37H25zM27,36H28V37H27zM30,36H31V37H30zM32,36H33V37H32zM36,36H37V37H36zM38,36H39V37H38zM39,36H40V37H39zM40,36H41V37H40zM41,36H42V37H41zM42,36H43V37H42zM44,36H45V37H44zM45,36H46V37H45zM46,36H47V37H46zM48,36H49V37H48zM49,36H50V37H49zM50,36H51V37H50zM54,36H55V37H54zM56,36H57V37H56zM58,36H59V37H58zM60,36H61V37H60zM64,36H65V37H64zM68,36H69V37H68zM69,36H70V37H69zM72,36H73V37H72zM5,37H6V38H5zM6,37H7V38H6zM7,37H8V38H7zM10,37H11V38H10zM11,37H12V38H11zM14,37H15V38H14zM17,37H18V38H17zM19,37H20V38H19zM20,37H21V38H20zM21,37H22V38H21zM28,37H29V38H28zM29,37H30V38H29zM31,37H32V38H31zM34,37H35V38H34zM35,37H36V38H35zM37,37H38V38H37zM38,37H39V38H38zM39,37H40V38H39zM45,37H46V38H45zM46,37H47V38H46zM48,37H49V38H48zM49,37H50V38H49zM50,37H51V38H50zM52,37H53V38H52zM54,37H55V38H54zM55,37H56V38H55zM59,37H60V38H59zM61,37H62V38H61zM65,37H66V38H65zM66,37H67V38H66zM68,37H69V38H68zM70,37H71V38H70zM71,37H72V38H71zM72,37H73V38H72zM3,38H4V39H3zM8,38H9V39H8zM9,38H10V39H9zM13,38H14V39H13zM14,38H15V39H14zM17,38H18V39H17zM19,38H20V39H19zM21,38H22V39H21zM23,38H24V39H23zM24,38H25V39H24zM25,38H26V39H25zM26,38H27V39H26zM40,38H41V39H40zM41,38H42V39H41zM45,38H46V39H45zM46,38H47V39H46zM48,38H49V39H48zM50,38H51V39H50zM51,38H52V39H51zM52,38H53V39H52zM53,38H54V39H53zM54,38H55V39H54zM55,38H56V39H55zM56,38H57V39H56zM58,38H59V39H58zM60,38H61V39H60zM62,38H63V39H62zM64,38H65V39H64zM65,38H66V39H65zM66,38H67V39H66zM69,38H70V39H69zM71,38H72V39H71zM74,38H75V39H74zM2,39H3V40H2zM6,39H7V40H6zM7,39H8V40H7zM9,39H10V40H9zM11,39H12V40H11zM15,39H16V40H15zM16,39H17V40H16zM17,39H18V40H17zM22,39H23V40H22zM23,39H24V40H23zM25,39H26V40H25zM26,39H27V40H26zM28,39H29V40H28zM29,39H30V40H29zM30,39H31V40H30zM31,39H32V40H31zM34,39H35V40H34zM35,39H36V40H35zM37,39H38V40H37zM39,39H40V40H39zM44,39H45V40H44zM45,39H46V40H45zM48,39H49V40H48zM49,39H50V40H49zM53,39H54V40H53zM54,39H55V40H54zM56,39H57V40H56zM57,39H58V40H57zM63,39H64V40H63zM65,39H66V40H65zM67,39H68V40H67zM72,39H73V40H72zM73,39H74V40H73zM3,40H4V41H3zM4,40H5V41H4zM5,40H6V41H5zM6,40H7V41H6zM8,40H9V41H8zM10,40H11V41H10zM11,40H12V41H11zM12,40H13V41H12zM15,40H16V41H15zM16,40H17V41H16zM18,40H19V41H18zM19,40H20V41H19zM20,40H21V41H20zM21,40H22V41H21zM22,40H23V41H22zM23,40H24V41H23zM24,40H25V41H24zM26,40H27V41H26zM27,40H28V41H27zM29,40H30V41H29zM31,40H32V41H31zM33,40H34V41H33zM36,40H37V41H36zM37,40H38V41H37zM38,40H39V41H38zM41,40H42V41H41zM46,40H47V41H46zM47,40H48V41H47zM48,40H49V41H48zM52,40H53V41H52zM55,40H56V41H55zM56,40H57V41H56zM57,40H58V41H57zM59,40H60V41H59zM61,40H62V41H61zM63,40H64V41H63zM64,40H65V41H64zM68,40H69V41H68zM70,40H71V41H70zM74,40H75V41H74zM2,41H3V42H2zM3,41H4V42H3zM4,41H5V42H4zM6,41H7V42H6zM7,41H8V42H7zM10,41H11V42H10zM14,41H15V42H14zM16,41H17V42H16zM17,41H18V42H17zM20,41H21V42H20zM21,41H22V42H21zM23,41H24V42H23zM24,41H25V42H24zM25,41H26V42H25zM27,41H28V42H27zM29,41H30V42H29zM30,41H31V42H30zM31,41H32V42H31zM32,41H33V42H32zM33,41H34V42H33zM34,41H35V42H34zM35,41H36V42H35zM36,41H37V42H36zM37,41H38V42H37zM39,41H40V42H39zM40,41H41V42H40zM41,41H42V42H41zM43,41H44V42H43zM45,41H46V42H45zM46,41H47V42H46zM47,41H48V42H47zM49,41H50V42H49zM50,41H51V42H50zM53,41H54V42H53zM55,41H56V42H55zM56,41H57V42H56zM57,41H58V42H57zM59,41H60V42H59zM62,41H63V42H62zM65,41H66V42H65zM67,41H68V42H67zM69,41H70V42H69zM72,41H73V42H72zM74,41H75V42H74zM2,42H3V43H2zM3,42H4V43H3zM7,42H8V43H7zM8,42H9V43H8zM9,42H10V43H9zM11,42H12V43H11zM13,42H14V43H13zM16,42H17V43H16zM17,42H18V43H17zM19,42H20V43H19zM21,42H22V43H21zM25,42H26V43H25zM29,42H30V43H29zM30,42H31V43H30zM31,42H32V43H31zM32,42H33V43H32zM34,42H35V43H34zM35,42H36V43H35zM36,42H37V43H36zM42,42H43V43H42zM43,42H44V43H43zM46,42H47V43H46zM48,42H49V43H48zM49,42H50V43H49zM50,42H51V43H50zM51,42H52V43H51zM54,42H55V43H54zM55,42H56V43H55zM56,42H57V43H56zM57,42H58V43H57zM58,42H59V43H58zM60,42H61V43H60zM63,42H64V43H63zM64,42H65V43H64zM66,42H67V43H66zM68,42H69V43H68zM71,42H72V43H71zM4,43H5V44H4zM6,43H7V44H6zM10,43H11V44H10zM14,43H15V44H14zM15,43H16V44H15zM16,43H17V44H16zM18,43H19V44H18zM21,43H22V44H21zM25,43H26V44H25zM27,43H28V44H27zM29,43H30V44H29zM30,43H31V44H30zM31,43H32V44H31zM32,43H33V44H32zM36,43H37V44H36zM37,43H38V44H37zM39,43H40V44H39zM40,43H41V44H40zM43,43H44V44H43zM45,43H46V44H45zM46,43H47V44H46zM47,43H48V44H47zM49,43H50V44H49zM50,43H51V44H50zM53,43H54V44H53zM55,43H56V44H55zM63,43H64V44H63zM65,43H66V44H65zM67,43H68V44H67zM68,43H69V44H68zM71,43H72V44H71zM72,43H73V44H72zM74,43H75V44H74zM3,44H4V45H3zM7,44H8V45H7zM8,44H9V45H8zM9,44H10V45H9zM10,44H11V45H10zM11,44H12V45H11zM13,44H14V45H13zM14,44H15V45H14zM15,44H16V45H15zM16,44H17V45H16zM17,44H18V45H17zM18,44H19V45H18zM24,44H25V45H24zM25,44H26V45H25zM26,44H27V45H26zM29,44H30V45H29zM33,44H34V45H33zM38,44H39V45H38zM40,44H41V45H40zM41,44H42V45H41zM48,44H49V45H48zM50,44H51V45H50zM53,44H54V45H53zM55,44H56V45H55zM56,44H57V45H56zM60,44H61V45H60zM63,44H64V45H63zM64,44H65V45H64zM66,44H67V45H66zM68,44H69V45H68zM70,44H71V45H70zM71,44H72V45H71zM72,44H73V45H72zM74,44H75V45H74zM2,45H3V46H2zM3,45H4V46H3zM4,45H5V46H4zM6,45H7V46H6zM7,45H8V46H7zM14,45H15V46H14zM16,45H17V46H16zM18,45H19V46H18zM19,45H20V46H19zM22,45H23V46H22zM23,45H24V46H23zM24,45H25V46H24zM25,45H26V46H25zM26,45H27V46H26zM28,45H29V46H28zM29,45H30V46H29zM30,45H31V46H30zM31,45H32V46H31zM32,45H33V46H32zM33,45H34V46H33zM35,45H36V46H35zM36,45H37V46H36zM39,45H40V46H39zM40,45H41V46H40zM43,45H44V46H43zM45,45H46V46H45zM49,45H50V46H49zM50,45H51V46H50zM51,45H52V46H51zM53,45H54V46H53zM57,45H58V46H57zM60,45H61V46H60zM61,45H62V46H61zM63,45H64V46H63zM64,45H65V46H64zM67,45H68V46H67zM69,45H70V46H69zM71,45H72V46H71zM72,45H73V46H72zM4,46H5V47H4zM5,46H6V47H5zM6,46H7V47H6zM7,46H8V47H7zM8,46H9V47H8zM9,46H10V47H9zM10,46H11V47H10zM13,46H14V47H13zM14,46H15V47H14zM17,46H18V47H17zM19,46H20V47H19zM21,46H22V47H21zM22,46H23V47H22zM24,46H25V47H24zM26,46H27V47H26zM27,46H28V47H27zM28,46H29V47H28zM29,46H30V47H29zM30,46H31V47H30zM31,46H32V47H31zM32,46H33V47H32zM33,46H34V47H33zM34,46H35V47H34zM35,46H36V47H35zM36,46H37V47H36zM39,46H40V47H39zM40,46H41V47H40zM44,46H45V47H44zM46,46H47V47H46zM47,46H48V47H47zM48,46H49V47H48zM49,46H50V47H49zM50,46H51V47H50zM51,46H52V47H51zM54,46H55V47H54zM57,46H58V47H57zM58,46H59V47H58zM60,46H61V47H60zM62,46H63V47H62zM63,46H64V47H63zM64,46H65V47H64zM65,46H66V47H65zM66,46H67V47H66zM67,46H68V47H67zM68,46H69V47H68zM69,46H70V47H69zM70,46H71V47H70zM73,46H74V47H73zM74,46H75V47H74zM4,47H5V48H4zM6,47H7V48H6zM10,47H11V48H10zM12,47H13V48H12zM18,47H19V48H18zM20,47H21V48H20zM23,47H24V48H23zM24,47H25V48H24zM26,47H27V48H26zM30,47H31V48H30zM31,47H32V48H31zM33,47H34V48H33zM34,47H35V48H34zM38,47H39V48H38zM39,47H40V48H39zM43,47H44V48H43zM45,47H46V48H45zM46,47H47V48H46zM50,47H51V48H50zM51,47H52V48H51zM52,47H53V48H52zM55,47H56V48H55zM56,47H57V48H56zM64,47H65V48H64zM66,47H67V48H66zM70,47H71V48H70zM72,47H73V48H72zM73,47H74V48H73zM4,48H5V49H4zM5,48H6V49H5zM6,48H7V49H6zM8,48H9V49H8zM10,48H11V49H10zM12,48H13V49H12zM15,48H16V49H15zM16,48H17V49H16zM17,48H18V49H17zM18,48H19V49H18zM20,48H21V49H20zM26,48H27V49H26zM28,48H29V49H28zM30,48H31V49H30zM32,48H33V49H32zM36,48H37V49H36zM38,48H39V49H38zM40,48H41V49H40zM43,48H44V49H43zM46,48H47V49H46zM48,48H49V49H48zM50,48H51V49H50zM51,48H52V49H51zM52,48H53V49H52zM54,48H55V49H54zM58,48H59V49H58zM60,48H61V49H60zM64,48H65V49H64zM66,48H67V49H66zM68,48H69V49H68zM70,48H71V49H70zM72,48H73V49H72zM73,48H74V49H73zM74,48H75V49H74zM4,49H5V50H4zM6,49H7V50H6zM10,49H11V50H10zM11,49H12V50H11zM12,49H13V50H12zM16,49H17V50H16zM17,49H18V50H17zM19,49H20V50H19zM20,49H21V50H20zM21,49H22V50H21zM22,49H23V50H22zM26,49H27V50H26zM30,49H31V50H30zM33,49H34V50H33zM34,49H35V50H34zM35,49H36V50H35zM36,49H37V50H36zM37,49H38V50H37zM38,49H39V50H38zM40,49H41V50H40zM41,49H42V50H41zM42,49H43V50H42zM44,49H45V50H44zM45,49H46V50H45zM46,49H47V50H46zM50,49H51V50H50zM51,49H52V50H51zM52,49H53V50H52zM55,49H56V50H55zM59,49H60V50H59zM61,49H62V50H61zM62,49H63V50H62zM65,49H66V50H65zM66,49H67V50H66zM70,49H71V50H70zM73,49H74V50H73zM74,49H75V50H74zM2,50H3V51H2zM4,50H5V51H4zM6,50H7V51H6zM7,50H8V51H7zM8,50H9V51H8zM9,50H10V51H9zM10,50H11V51H10zM15,50H16V51H15zM16,50H17V51H16zM17,50H18V51H17zM18,50H19V51H18zM19,50H20V51H19zM21,50H22V51H21zM22,50H23V51H22zM25,50H26V51H25zM26,50H27V51H26zM27,50H28V51H27zM28,50H29V51H28zM29,50H30V51H29zM30,50H31V51H30zM31,50H32V51H31zM36,50H37V51H36zM38,50H39V51H38zM44,50H45V51H44zM46,50H47V51H46zM47,50H48V51H47zM48,50H49V51H48zM49,50H50V51H49zM50,50H51V51H50zM52,50H53V51H52zM54,50H55V51H54zM56,50H57V51H56zM57,50H58V51H57zM59,50H60V51H59zM62,50H63V51H62zM64,50H65V51H64zM66,50H67V51H66zM67,50H68V51H67zM68,50H69V51H68zM69,50H70V51H69zM70,50H71V51H70zM72,50H73V51H72zM2,51H3V52H2zM3,51H4V52H3zM4,51H5V52H4zM5,51H6V52H5zM7,51H8V52H7zM10,51H11V52H10zM11,51H12V52H11zM12,51H13V52H12zM14,51H15V52H14zM15,51H16V52H15zM21,51H22V52H21zM24,51H25V52H24zM26,51H27V52H26zM28,51H29V52H28zM29,51H30V52H29zM30,51H31V52H30zM31,51H32V52H31zM32,51H33V52H32zM33,51H34V52H33zM35,51H36V52H35zM36,51H37V52H36zM37,51H38V52H37zM39,51H40V52H39zM43,51H44V52H43zM45,51H46V52H45zM46,51H47V52H46zM48,51H49V52H48zM49,51H50V52H49zM51,51H52V52H51zM53,51H54V52H53zM55,51H56V52H55zM57,51H58V52H57zM58,51H59V52H58zM61,51H62V52H61zM65,51H66V52H65zM67,51H68V52H67zM68,51H69V52H68zM69,51H70V52H69zM70,51H71V52H70zM73,51H74V52H73zM74,51H75V52H74zM2,52H3V53H2zM5,52H6V53H5zM6,52H7V53H6zM8,52H9V53H8zM9,52H10V53H9zM10,52H11V53H10zM11,52H12V53H11zM12,52H13V53H12zM14,52H15V53H14zM15,52H16V53H15zM16,52H17V53H16zM19,52H20V53H19zM20,52H21V53H20zM21,52H22V53H21zM23,52H24V53H23zM25,52H26V53H25zM28,52H29V53H28zM31,52H32V53H31zM32,52H33V53H32zM33,52H34V53H33zM34,52H35V53H34zM35,52H36V53H35zM36,52H37V53H36zM38,52H39V53H38zM39,52H40V53H39zM40,52H41V53H40zM42,52H43V53H42zM43,52H44V53H43zM44,52H45V53H44zM46,52H47V53H46zM47,52H48V53H47zM48,52H49V53H48zM50,52H51V53H50zM52,52H53V53H52zM53,52H54V53H53zM54,52H55V53H54zM56,52H57V53H56zM59,52H60V53H59zM60,52H61V53H60zM62,52H63V53H62zM64,52H65V53H64zM66,52H67V53H66zM69,52H70V53H69zM70,52H71V53H70zM72,52H73V53H72zM74,52H75V53H74zM2,53H3V54H2zM3,53H4V54H3zM4,53H5V54H4zM7,53H8V54H7zM9,53H10V54H9zM12,53H13V54H12zM13,53H14V54H13zM14,53H15V54H14zM16,53H17V54H16zM17,53H18V54H17zM19,53H20V54H19zM20,53H21V54H20zM23,53H24V54H23zM25,53H26V54H25zM26,53H27V54H26zM31,53H32V54H31zM33,53H34V54H33zM35,53H36V54H35zM38,53H39V54H38zM39,53H40V54H39zM42,53H43V54H42zM43,53H44V54H43zM45,53H46V54H45zM49,53H50V54H49zM53,53H54V54H53zM64,53H65V54H64zM65,53H66V54H65zM66,53H67V54H66zM67,53H68V54H67zM69,53H70V54H69zM70,53H71V54H70zM72,53H73V54H72zM2,54H3V55H2zM3,54H4V55H3zM4,54H5V55H4zM5,54H6V55H5zM6,54H7V55H6zM8,54H9V55H8zM10,54H11V55H10zM11,54H12V55H11zM12,54H13V55H12zM16,54H17V55H16zM18,54H19V55H18zM20,54H21V55H20zM22,54H23V55H22zM23,54H24V55H23zM24,54H25V55H24zM29,54H30V55H29zM30,54H31V55H30zM31,54H32V55H31zM32,54H33V55H32zM34,54H35V55H34zM35,54H36V55H35zM36,54H37V55H36zM37,54H38V55H37zM39,54H40V55H39zM40,54H41V55H40zM43,54H44V55H43zM44,54H45V55H44zM45,54H46V55H45zM46,54H47V55H46zM48,54H49V55H48zM50,54H51V55H50zM51,54H52V55H51zM53,54H54V55H53zM54,54H55V55H54zM58,54H59V55H58zM62,54H63V55H62zM64,54H65V55H64zM66,54H67V55H66zM67,54H68V55H67zM68,54H69V55H68zM70,54H71V55H70zM71,54H72V55H71zM4,55H5V56H4zM6,55H7V56H6zM7,55H8V56H7zM9,55H10V56H9zM10,55H11V56H10zM11,55H12V56H11zM13,55H14V56H13zM16,55H17V56H16zM19,55H20V56H19zM20,55H21V56H20zM22,55H23V56H22zM24,55H25V56H24zM27,55H28V56H27zM29,55H30V56H29zM30,55H31V56H30zM31,55H32V56H31zM33,55H34V56H33zM35,55H36V56H35zM39,55H40V56H39zM43,55H44V56H43zM46,55H47V56H46zM47,55H48V56H47zM48,55H49V56H48zM49,55H50V56H49zM53,55H54V56H53zM54,55H55V56H54zM59,55H60V56H59zM60,55H61V56H60zM61,55H62V56H61zM64,55H65V56H64zM66,55H67V56H66zM67,55H68V56H67zM68,55H69V56H68zM69,55H70V56H69zM70,55H71V56H70zM71,55H72V56H71zM73,55H74V56H73zM2,56H3V57H2zM3,56H4V57H3zM6,56H7V57H6zM8,56H9V57H8zM9,56H10V57H9zM12,56H13V57H12zM13,56H14V57H13zM15,56H16V57H15zM17,56H18V57H17zM18,56H19V57H18zM20,56H21V57H20zM21,56H22V57H21zM22,56H23V57H22zM23,56H24V57H23zM24,56H25V57H24zM26,56H27V57H26zM27,56H28V57H27zM28,56H29V57H28zM31,56H32V57H31zM32,56H33V57H32zM35,56H36V57H35zM36,56H37V57H36zM39,56H40V57H39zM40,56H41V57H40zM43,56H44V57H43zM44,56H45V57H44zM45,56H46V57H45zM46,56H47V57H46zM48,56H49V57H48zM50,56H51V57H50zM52,56H53V57H52zM56,56H57V57H56zM61,56H62V57H61zM62,56H63V57H62zM66,56H67V57H66zM67,56H68V57H67zM69,56H70V57H69zM72,56H73V57H72zM4,57H5V58H4zM5,57H6V58H5zM6,57H7V58H6zM7,57H8V58H7zM9,57H10V58H9zM10,57H11V58H10zM11,57H12V58H11zM12,57H13V58H12zM16,57H17V58H16zM17,57H18V58H17zM19,57H20V58H19zM20,57H21V58H20zM21,57H22V58H21zM24,57H25V58H24zM25,57H26V58H25zM31,57H32V58H31zM33,57H34V58H33zM35,57H36V58H35zM37,57H38V58H37zM41,57H42V58H41zM43,57H44V58H43zM44,57H45V58H44zM45,57H46V58H45zM47,57H48V58H47zM48,57H49V58H48zM49,57H50V58H49zM54,57H55V58H54zM55,57H56V58H55zM56,57H57V58H56zM59,57H60V58H59zM64,57H65V58H64zM69,57H70V58H69zM72,57H73V58H72zM73,57H74V58H73zM74,57H75V58H74zM3,58H4V59H3zM5,58H6V59H5zM7,58H8V59H7zM8,58H9V59H8zM9,58H10V59H9zM10,58H11V59H10zM11,58H12V59H11zM14,58H15V59H14zM15,58H16V59H15zM16,58H17V59H16zM17,58H18V59H17zM18,58H19V59H18zM20,58H21V59H20zM21,58H22V59H21zM22,58H23V59H22zM24,58H25V59H24zM25,58H26V59H25zM28,58H29V59H28zM29,58H30V59H29zM30,58H31V59H30zM31,58H32V59H31zM32,58H33V59H32zM33,58H34V59H33zM37,58H38V59H37zM40,58H41V59H40zM41,58H42V59H41zM43,58H44V59H43zM46,58H47V59H46zM48,58H49V59H48zM50,58H51V59H50zM51,58H52V59H51zM52,58H53V59H52zM55,58H56V59H55zM56,58H57V59H56zM57,58H58V59H57zM58,58H59V59H58zM60,58H61V59H60zM61,58H62V59H61zM63,58H64V59H63zM64,58H65V59H64zM65,58H66V59H65zM66,58H67V59H66zM67,58H68V59H67zM68,58H69V59H68zM69,58H70V59H69zM70,58H71V59H70zM72,58H73V59H72zM2,59H3V60H2zM4,59H5V60H4zM5,59H6V60H5zM6,59H7V60H6zM7,59H8V60H7zM9,59H10V60H9zM10,59H11V60H10zM14,59H15V60H14zM15,59H16V60H15zM16,59H17V60H16zM19,59H20V60H19zM20,59H21V60H20zM24,59H25V60H24zM28,59H29V60H28zM29,59H30V60H29zM31,59H32V60H31zM32,59H33V60H32zM33,59H34V60H33zM34,59H35V60H34zM36,59H37V60H36zM37,59H38V60H37zM38,59H39V60H38zM41,59H42V60H41zM42,59H43V60H42zM44,59H45V60H44zM45,59H46V60H45zM47,59H48V60H47zM49,59H50V60H49zM51,59H52V60H51zM53,59H54V60H53zM54,59H55V60H54zM55,59H56V60H55zM57,59H58V60H57zM59,59H60V60H59zM64,59H65V60H64zM66,59H67V60H66zM71,59H72V60H71zM2,60H3V61H2zM4,60H5V61H4zM5,60H6V61H5zM7,60H8V61H7zM8,60H9V61H8zM9,60H10V61H9zM10,60H11V61H10zM12,60H13V61H12zM14,60H15V61H14zM18,60H19V61H18zM20,60H21V61H20zM21,60H22V61H21zM22,60H23V61H22zM23,60H24V61H23zM25,60H26V61H25zM30,60H31V61H30zM31,60H32V61H31zM33,60H34V61H33zM35,60H36V61H35zM37,60H38V61H37zM41,60H42V61H41zM43,60H44V61H43zM44,60H45V61H44zM45,60H46V61H45zM47,60H48V61H47zM48,60H49V61H48zM49,60H50V61H49zM52,60H53V61H52zM53,60H54V61H53zM54,60H55V61H54zM55,60H56V61H55zM56,60H57V61H56zM58,60H59V61H58zM60,60H61V61H60zM61,60H62V61H61zM66,60H67V61H66zM67,60H68V61H67zM70,60H71V61H70zM72,60H73V61H72zM74,60H75V61H74zM2,61H3V62H2zM3,61H4V62H3zM4,61H5V62H4zM5,61H6V62H5zM7,61H8V62H7zM10,61H11V62H10zM14,61H15V62H14zM17,61H18V62H17zM18,61H19V62H18zM19,61H20V62H19zM20,61H21V62H20zM22,61H23V62H22zM25,61H26V62H25zM26,61H27V62H26zM30,61H31V62H30zM33,61H34V62H33zM36,61H37V62H36zM37,61H38V62H37zM39,61H40V62H39zM40,61H41V62H40zM41,61H42V62H41zM43,61H44V62H43zM44,61H45V62H44zM45,61H46V62H45zM46,61H47V62H46zM47,61H48V62H47zM48,61H49V62H48zM49,61H50V62H49zM54,61H55V62H54zM55,61H56V62H55zM56,61H57V62H56zM59,61H60V62H59zM61,61H62V62H61zM62,61H63V62H62zM63,61H64V62H63zM65,61H66V62H65zM67,61H68V62H67zM69,61H70V62H69zM71,61H72V62H71zM2,62H3V63H2zM3,62H4V63H3zM5,62H6V63H5zM8,62H9V63H8zM9,62H10V63H9zM11,62H12V63H11zM12,62H13V63H12zM13,62H14V63H13zM16,62H17V63H16zM19,62H20V63H19zM20,62H21V63H20zM22,62H23V63H22zM24,62H25V63H24zM25,62H26V63H25zM26,62H27V63H26zM30,62H31V63H30zM31,62H32V63H31zM32,62H33V63H32zM35,62H36V63H35zM36,62H37V63H36zM39,62H40V63H39zM40,62H41V63H40zM42,62H43V63H42zM44,62H45V63H44zM45,62H46V63H45zM47,62H48V63H47zM48,62H49V63H48zM49,62H50V63H49zM52,62H53V63H52zM56,62H57V63H56zM59,62H60V63H59zM60,62H61V63H60zM64,62H65V63H64zM66,62H67V63H66zM70,62H71V63H70zM71,62H72V63H71zM72,62H73V63H72zM73,62H74V63H73zM3,63H4V64H3zM4,63H5V64H4zM5,63H6V64H5zM6,63H7V64H6zM9,63H10V64H9zM10,63H11V64H10zM11,63H12V64H11zM12,63H13V64H12zM13,63H14V64H13zM15,63H16V64H15zM16,63H17V64H16zM21,63H22V64H21zM22,63H23V64H22zM24,63H25V64H24zM25,63H26V64H25zM27,63H28V64H27zM28,63H29V64H28zM29,63H30V64H29zM32,63H33V64H32zM36,63H37V64H36zM37,63H38V64H37zM38,63H39V64H38zM41,63H42V64H41zM42,63H43V64H42zM43,63H44V64H43zM44,63H45V64H44zM49,63H50V64H49zM50,63H51V64H50zM51,63H52V64H51zM53,63H54V64H53zM57,63H58V64H57zM58,63H59V64H58zM59,63H60V64H59zM60,63H61V64H60zM61,63H62V64H61zM63,63H64V64H63zM66,63H67V64H66zM67,63H68V64H67zM68,63H69V64H68zM70,63H71V64H70zM71,63H72V64H71zM2,64H3V65H2zM3,64H4V65H3zM5,64H6V65H5zM7,64H8V65H7zM8,64H9V65H8zM10,64H11V65H10zM12,64H13V65H12zM13,64H14V65H13zM18,64H19V65H18zM21,64H22V65H21zM27,64H28V65H27zM28,64H29V65H28zM30,64H31V65H30zM32,64H33V65H32zM33,64H34V65H33zM35,64H36V65H35zM37,64H38V65H37zM38,64H39V65H38zM39,64H40V65H39zM40,64H41V65H40zM43,64H44V65H43zM44,64H45V65H44zM46,64H47V65H46zM50,64H51V65H50zM51,64H52V65H51zM52,64H53V65H52zM55,64H56V65H55zM56,64H57V65H56zM59,64H60V65H59zM60,64H61V65H60zM61,64H62V65H61zM62,64H63V65H62zM64,64H65V65H64zM66,64H67V65H66zM69,64H70V65H69zM70,64H71V65H70zM73,64H74V65H73zM5,65H6V66H5zM6,65H7V66H6zM10,65H11V66H10zM11,65H12V66H11zM13,65H14V66H13zM17,65H18V66H17zM18,65H19V66H18zM20,65H21V66H20zM23,65H24V66H23zM24,65H25V66H24zM27,65H28V66H27zM28,65H29V66H28zM29,65H30V66H29zM30,65H31V66H30zM32,65H33V66H32zM33,65H34V66H33zM35,65H36V66H35zM38,65H39V66H38zM40,65H41V66H40zM41,65H42V66H41zM43,65H44V66H43zM44,65H45V66H44zM46,65H47V66H46zM47,65H48V66H47zM49,65H50V66H49zM50,65H51V66H50zM51,65H52V66H51zM54,65H55V66H54zM56,65H57V66H56zM57,65H58V66H57zM60,65H61V66H60zM61,65H62V66H61zM65,65H66V66H65zM67,65H68V66H67zM71,65H72V66H71zM2,66H3V67H2zM6,66H7V67H6zM8,66H9V67H8zM13,66H14V67H13zM19,66H20V67H19zM20,66H21V67H20zM21,66H22V67H21zM23,66H24V67H23zM25,66H26V67H25zM26,66H27V67H26zM27,66H28V67H27zM28,66H29V67H28zM29,66H30V67H29zM30,66H31V67H30zM31,66H32V67H31zM32,66H33V67H32zM34,66H35V67H34zM35,66H36V67H35zM36,66H37V67H36zM38,66H39V67H38zM39,66H40V67H39zM40,66H41V67H40zM42,66H43V67H42zM43,66H44V67H43zM46,66H47V67H46zM47,66H48V67H47zM48,66H49V67H48zM49,66H50V67H49zM50,66H51V67H50zM52,66H53V67H52zM56,66H57V67H56zM58,66H59V67H58zM60,66H61V67H60zM62,66H63V67H62zM64,66H65V67H64zM66,66H67V67H66zM67,66H68V67H67zM68,66H69V67H68zM69,66H70V67H69zM70,66H71V67H70zM71,66H72V67H71zM10,67H11V68H10zM11,67H12V68H11zM12,67H13V68H12zM15,67H16V68H15zM18,67H19V68H18zM20,67H21V68H20zM21,67H22V68H21zM22,67H23V68H22zM23,67H24V68H23zM25,67H26V68H25zM26,67H27V68H26zM30,67H31V68H30zM31,67H32V68H31zM36,67H37V68H36zM43,67H44V68H43zM44,67H45V68H44zM46,67H47V68H46zM50,67H51V68H50zM53,67H54V68H53zM55,67H56V68H55zM56,67H57V68H56zM57,67H58V68H57zM58,67H59V68H58zM59,67H60V68H59zM60,67H61V68H60zM61,67H62V68H61zM62,67H63V68H62zM63,67H64V68H63zM64,67H65V68H64zM66,67H67V68H66zM70,67H71V68H70zM72,67H73V68H72zM73,67H74V68H73zM74,67H75V68H74zM2,68H3V69H2zM3,68H4V69H3zM4,68H5V69H4zM5,68H6V69H5zM6,68H7V69H6zM7,68H8V69H7zM8,68H9V69H8zM12,68H13V69H12zM16,68H17V69H16zM17,68H18V69H17zM19,68H20V69H19zM20,68H21V69H20zM21,68H22V69H21zM24,68H25V69H24zM26,68H27V69H26zM28,68H29V69H28zM30,68H31V69H30zM35,68H36V69H35zM36,68H37V69H36zM37,68H38V69H37zM39,68H40V69H39zM40,68H41V69H40zM41,68H42V69H41zM43,68H44V69H43zM44,68H45V69H44zM45,68H46V69H45zM46,68H47V69H46zM48,68H49V69H48zM50,68H51V69H50zM51,68H52V69H51zM52,68H53V69H52zM54,68H55V69H54zM55,68H56V69H55zM58,68H59V69H58zM59,68H60V69H59zM61,68H62V69H61zM62,68H63V69H62zM63,68H64V69H63zM66,68H67V69H66zM68,68H69V69H68zM70,68H71V69H70zM72,68H73V69H72zM74,68H75V69H74zM2,69H3V70H2zM8,69H9V70H8zM11,69H12V70H11zM13,69H14V70H13zM15,69H16V70H15zM17,69H18V70H17zM18,69H19V70H18zM22,69H23V70H22zM24,69H25V70H24zM25,69H26V70H25zM26,69H27V70H26zM30,69H31V70H30zM32,69H33V70H32zM33,69H34V70H33zM37,69H38V70H37zM40,69H41V70H40zM41,69H42V70H41zM43,69H44V70H43zM44,69H45V70H44zM46,69H47V70H46zM50,69H51V70H50zM51,69H52V70H51zM52,69H53V70H52zM53,69H54V70H53zM55,69H56V70H55zM56,69H57V70H56zM57,69H58V70H57zM60,69H61V70H60zM61,69H62V70H61zM62,69H63V70H62zM63,69H64V70H63zM64,69H65V70H64zM66,69H67V70H66zM70,69H71V70H70zM74,69H75V70H74zM2,70H3V71H2zM4,70H5V71H4zM5,70H6V71H5zM6,70H7V71H6zM8,70H9V71H8zM10,70H11V71H10zM11,70H12V71H11zM12,70H13V71H12zM13,70H14V71H13zM14,70H15V71H14zM15,70H16V71H15zM17,70H18V71H17zM18,70H19V71H18zM19,70H20V71H19zM20,70H21V71H20zM24,70H25V71H24zM26,70H27V71H26zM27,70H28V71H27zM28,70H29V71H28zM29,70H30V71H29zM30,70H31V71H30zM33,70H34V71H33zM36,70H37V71H36zM38,70H39V71H38zM40,70H41V71H40zM42,70H43V71H42zM44,70H45V71H44zM45,70H46V71H45zM46,70H47V71H46zM47,70H48V71H47zM48,70H49V71H48zM49,70H50V71H49zM50,70H51V71H50zM51,70H52V71H51zM52,70H53V71H52zM53,70H54V71H53zM54,70H55V71H54zM56,70H57V71H56zM59,70H60V71H59zM61,70H62V71H61zM66,70H67V71H66zM67,70H68V71H67zM68,70H69V71H68zM69,70H70V71H69zM70,70H71V71H70zM72,70H73V71H72zM74,70H75V71H74zM2,71H3V72H2zM4,71H5V72H4zM5,71H6V72H5zM6,71H7V72H6zM8,71H9V72H8zM11,71H12V72H11zM12,71H13V72H12zM15,71H16V72H15zM17,71H18V72H17zM19,71H20V72H19zM21,71H22V72H21zM23,71H24V72H23zM24,71H25V72H24zM28,71H29V72H28zM30,71H31V72H30zM35,71H36V72H35zM36,71H37V72H36zM37,71H38V72H37zM39,71H40V72H39zM41,71H42V72H41zM42,71H43V72H42zM43,71H44V72H43zM45,71H46V72H45zM47,71H48V72H47zM49,71H50V72H49zM52,71H53V72H52zM54,71H55V72H54zM55,71H56V72H55zM58,71H59V72H58zM59,71H60V72H59zM60,71H61V72H60zM62,71H63V72H62zM67,71H68V72H67zM68,71H69V72H68zM69,71H70V72H69zM71,71H72V72H71zM72,71H73V72H72zM73,71H74V72H73zM2,72H3V73H2zM4,72H5V73H4zM5,72H6V73H5zM6,72H7V73H6zM8,72H9V73H8zM10,72H11V73H10zM11,72H12V73H11zM12,72H13V73H12zM13,72H14V73H13zM16,72H17V73H16zM19,72H20V73H19zM24,72H25V73H24zM26,72H27V73H26zM28,72H29V73H28zM33,72H34V73H33zM34,72H35V73H34zM36,72H37V73H36zM38,72H39V73H38zM40,72H41V73H40zM42,72H43V73H42zM51,72H52V73H51zM53,72H54V73H53zM54,72H55V73H54zM55,72H56V73H55zM56,72H57V73H56zM57,72H58V73H57zM58,72H59V73H58zM60,72H61V73H60zM62,72H63V73H62zM65,72H66V73H65zM66,72H67V73H66zM67,72H68V73H67zM68,72H69V73H68zM70,72H71V73H70zM74,72H75V73H74zM2,73H3V74H2zM8,73H9V74H8zM13,73H14V74H13zM14,73H15V74H14zM15,73H16V74H15zM16,73H17V74H16zM19,73H20V74H19zM20,73H21V74H20zM22,73H23V74H22zM23,73H24V74H23zM24,73H25V74H24zM25,73H26V74H25zM27,73H28V74H27zM29,73H30V74H29zM32,73H33V74H32zM33,73H34V74H33zM34,73H35V74H34zM35,73H36V74H35zM38,73H39V74H38zM40,73H41V74H40zM43,73H44V74H43zM44,73H45V74H44zM46,73H47V74H46zM48,73H49V74H48zM50,73H51V74H50zM51,73H52V74H51zM53,73H54V74H53zM54,73H55V74H54zM55,73H56V74H55zM57,73H58V74H57zM59,73H60V74H59zM61,73H62V74H61zM64,73H65V74H64zM65,73H66V74H65zM67,73H68V74H67zM69,73H70V74H69zM71,73H72V74H71zM72,73H73V74H72zM2,74H3V75H2zM3,74H4V75H3zM4,74H5V75H4zM5,74H6V75H5zM6,74H7V75H6zM7,74H8V75H7zM8,74H9V75H8zM10,74H11V75H10zM11,74H12V75H11zM12,74H13V75H12zM13,74H14V75H13zM14,74H15V75H14zM15,74H16V75H15zM16,74H17V75H16zM18,74H19V75H18zM20,74H21V75H20zM21,74H22V75H21zM29,74H30V75H29zM37,74H38V75H37zM38,74H39V75H38zM39,74H40V75H39zM44,74H45V75H44zM46,74H47V75H46zM48,74H49V75H48zM52,74H53V75H52zM55,74H56V75H55zM58,74H59V75H58zM59,74H60V75H59zM60,74H61V75H60zM62,74H63V75H62zM66,74H67V75H66zM68,74H69V75H68zM69,74H70V75H69zM70,74H71V75H70zM71,74H72V75H71zM74,74H75V75H74z" id="qr-path" fill="#000000" fill-opacity="1" fill-rule="nonzero" stroke="none" /></svg>